<?xml version="1.0" standalone="no"?>
<!DOCTYPE svg PUBLIC "-//W3C//DTD SVG 20010904//EN"
 "http://www.w3.org/TR/2001/REC-SVG-20010904/DTD/svg10.dtd">
<svg version="1.0" xmlns="http://www.w3.org/2000/svg"
 width="512.000000pt" height="512.000000pt" viewBox="0 0 512.000000 512.000000"
 preserveAspectRatio="xMidYMid meet">
<metadata>
Created by potrace 1.11, written by Peter Selinger 2001-2013
</metadata>
<g transform="translate(0.000000,512.000000) scale(0.100000,-0.100000)"
fill="#000000" stroke="none">
<path d="M1280 4910 l0 -210 -210 0 -210 0 0 -220 0 -220 -220 0 -220 0 0
-420 0 -420 -210 0 -210 0 0 -640 0 -640 210 0 210 0 0 -430 0 -430 220 0 220
0 0 -210 0 -210 210 0 210 0 0 -220 0 -220 210 0 210 0 0 -210 0 -210 1070 0
1070 0 0 210 0 210 210 0 210 0 0 220 0 220 220 0 220 0 0 210 0 210 210 0
210 0 0 1280 0 1280 -210 0 -210 0 0 210 0 210 -220 0 -220 0 0 430 0 430
-1490 0 -1490 0 0 -210z m860 -1280 l0 -210 850 0 850 0 0 -220 0 -220 210 0
210 0 0 220 0 220 220 0 220 0 0 -1070 0 -1070 -220 0 -220 0 0 -210 0 -210
-210 0 -210 0 0 -220 0 -220 -1070 0 -1070 0 0 220 0 220 -210 0 -210 0 0 210
0 210 -210 0 -210 0 0 430 0 430 -220 0 -220 0 0 420 0 420 220 0 220 0 0 220
0 220 210 0 210 0 0 -220 0 -220 210 0 210 0 0 430 0 430 220 0 220 0 0 -210z"/>
<path d="M2560 2130 l0 -430 430 0 430 0 0 430 0 430 -430 0 -430 0 0 -430z"/>
<path d="M3840 2130 l0 -430 210 0 210 0 0 430 0 430 -210 0 -210 0 0 -430z"/>
</g>
</svg>
